<?xml version="1.0" standalone="no"?>
<!DOCTYPE svg PUBLIC "-//W3C//DTD SVG 20010904//EN"
 "http://www.w3.org/TR/2001/REC-SVG-20010904/DTD/svg10.dtd">
<svg version="1.0" xmlns="http://www.w3.org/2000/svg"
 width="1950.000000pt" height="1950.000000pt" viewBox="0 0 1950.000000 1950.000000"
 preserveAspectRatio="xMidYMid meet">
<metadata>
Created by potrace 1.14, written by Peter Selinger 2001-2017
</metadata>
<g transform="translate(0.000000,1950.000000) scale(0.100000,-0.100000)"
fill="#000000" stroke="none">
<path d="M1170 19480 c-8 -4 -58 -18 -110 -30 -237 -55 -456 -182 -650 -379
-52 -53 -119 -131 -148 -174 -79 -115 -156 -283 -201 -442 l-41 -140 0 -8573
c0 -4954 4 -8580 9 -8590 5 -9 18 -60 30 -112 68 -296 279 -604 543 -790 138
-97 340 -187 523 -231 79 -19 225 -19 8616 -19 7738 0 8544 1 8630 16 263 44
510 171 715 366 190 183 311 385 384 646 l30 105 0 8600 0 8599 -46 152 c-90
293 -158 411 -338 592 -201 200 -359 292 -644 374 l-141 40 -8573 -1 c-4720 0
-8580 -4 -8588 -9z m15735 -6443 c321 -67 560 -228 742 -501 96 -142 151 -284
172 -436 6 -48 11 -934 13 -2505 l3 -2430 -23 -102 c-43 -195 -105 -333 -211
-466 -162 -204 -410 -359 -679 -424 -57 -14 -157 -17 -659 -20 -343 -3 -593
-1 -593 5 0 5 -5 58 -11 118 -49 502 -307 876 -752 1089 -378 181 -772 177
-1156 -13 -212 -105 -369 -245 -505 -448 -30 -45 -62 -84 -71 -88 -21 -8
-7328 -8 -7349 0 -9 3 -46 50 -83 103 -36 53 -114 144 -172 202 -185 186 -379
291 -636 345 -72 15 -132 19 -295 19 -189 0 -213 -3 -310 -27 -310 -79 -534
-234 -747 -520 -40 -53 -83 -104 -95 -112 -20 -14 -89 -16 -590 -16 l-568 0 2
2608 3 2607 48 3 c26 2 47 5 47 8 0 9 -130 264 -135 264 -5 0 -135 -255 -135
-265 0 -3 23 -5 50 -5 l50 0 0 -2625 c0 -2612 0 -2625 20 -2645 20 -20 33 -20
600 -20 l580 0 -16 -37 c-56 -131 -88 -261 -108 -440 l-12 -108 -289 -3 c-391
-4 -528 15 -712 98 -171 78 -377 249 -475 397 -99 148 -177 348 -198 508 -14
103 -13 4750 1 4872 30 275 134 497 319 681 151 152 333 260 525 312 65 18
121 24 295 29 118 4 3325 7 7125 6 6425 -1 6916 -2 6990 -18z m-12064 -5832
c410 -71 722 -364 830 -780 20 -77 23 -113 23 -255 0 -145 -4 -177 -26 -261
-106 -395 -410 -676 -823 -764 -164 -35 -405 -12 -570 54 -263 106 -497 338
-594 591 -26 65 -57 206 -75 335 -8 56 10 214 35 310 106 411 440 713 855 774
95 14 255 12 345 -4z m9686 0 c342 -65 602 -261 754 -570 98 -200 127 -384 95
-605 -53 -364 -244 -627 -571 -790 -140 -70 -265 -100 -435 -107 -155 -6 -267
12 -405 66 -162 62 -338 196 -451 342 -245 319 -284 741 -102 1104 127 253
366 456 626 531 152 45 347 56 489 29z m-1393 -502 c-55 -126 -97 -302 -110
-466 l-7 -77 -3518 0 -3517 0 -6 28 c-2 15 -8 67 -11 116 -5 58 -23 147 -51
249 -24 87 -44 165 -44 173 0 12 501 14 3640 14 l3640 0 -16 -37z"/>
<path d="M14573 12341 c-105 -30 -173 -71 -254 -151 -52 -52 -85 -95 -107
-140 -64 -132 -62 -101 -62 -1020 0 -459 -3 -845 -6 -857 -4 -12 -315 -305
-698 -655 -1589 -1454 -2053 -1878 -2078 -1898 l-27 -21 -42 21 c-31 16 -55
21 -96 18 l-54 -3 -791 1425 c-628 1131 -791 1431 -788 1455 1 17 3 60 4 97 1
60 -2 70 -29 104 -47 57 -89 76 -161 72 -49 -3 -69 -10 -98 -32 -50 -38 -66
-66 -75 -131 -4 -31 -14 -62 -22 -70 -12 -12 -820 -556 -1756 -1182 l-293
-196 -72 16 c-40 9 -90 18 -110 19 -37 3 -49 17 -563 648 l-525 644 0 71 c0
51 -5 78 -19 101 -70 114 -220 126 -315 25 -27 -28 -30 -40 -35 -115 -7 -101
10 -76 -267 -397 -116 -134 -494 -572 -839 -974 -346 -401 -829 -963 -1074
-1248 -245 -285 -446 -522 -446 -526 0 -4 17 -22 37 -39 l36 -33 799 928 c439
510 1032 1199 1318 1531 389 452 523 601 534 596 31 -13 120 -16 152 -5 30 10
36 9 55 -11 13 -13 250 -302 529 -643 475 -583 506 -622 499 -650 -4 -16 -7
-60 -8 -97 -1 -60 2 -70 29 -104 41 -50 89 -74 150 -74 95 0 174 68 182 157 2
26 6 57 8 69 3 15 297 217 1009 695 553 371 1016 680 1029 688 21 13 29 12 71
-8 38 -19 59 -22 110 -19 l64 4 155 -281 c85 -154 437 -788 783 -1410 593
-1068 627 -1132 625 -1175 -9 -165 -8 -176 24 -216 47 -57 89 -76 161 -72 49
3 69 10 99 32 40 31 74 94 75 138 0 15 4 38 9 51 8 20 1063 991 2530 2329
l206 188 5 -833 5 -832 23 -65 c69 -191 222 -330 413 -375 55 -13 217 -15
1184 -15 1231 0 1179 -2 1314 62 90 43 206 159 249 249 65 137 62 20 62 1924
0 1904 3 1787 -62 1924 -22 47 -53 88 -107 141 -88 87 -148 122 -257 150 -75
19 -113 20 -1208 19 -1049 0 -1135 -2 -1193 -18z"/>
</g>
</svg>
