<svg version="1.1" id="Layer_1" xmlns="http://www.w3.org/2000/svg" xmlns:xlink="http://www.w3.org/1999/xlink" x="0px" y="0px"
	 width="100%" viewBox="0 0 1949 1950" enable-background="new 0 0 1949 1950" xml:space="preserve">
<path fill="#FF9100" opacity="1.000000" stroke="none" 
	d="
M1.000000,1833.000000 
	C1.000000,1261.631714 1.000000,690.263489 1.321051,118.787338 
	C2.428721,115.763321 3.314173,112.869827 3.986725,109.927666 
	C11.012958,79.190567 26.484554,53.351269 50.561012,33.213734 
	C69.519402,17.356943 91.336327,6.708868 116.112846,2.919943 
	C116.823158,2.811320 117.374527,1.663350 118.000000,1.000001 
	C689.368225,1.000000 1260.736450,1.000000 1832.212769,1.321199 
	C1836.485352,2.760467 1840.625122,3.982271 1844.818359,4.979572 
	C1870.008545,10.970708 1891.613403,23.671438 1909.816528,41.655910 
	C1921.617676,53.315414 1931.725830,66.733810 1937.684204,82.497505 
	C1941.728882,93.198669 1944.584839,104.347710 1948.067627,115.266083 
	C1948.294556,115.977165 1949.336914,116.428078 1950.000000,117.000000 
	C1950.000000,689.034912 1950.000000,1261.069824 1949.671875,1833.220459 
	C1948.561646,1836.253540 1947.709839,1839.154053 1947.008423,1842.090576 
	C1939.602295,1873.097290 1923.699219,1899.042236 1899.112549,1919.134277 
	C1878.760376,1935.765991 1855.337158,1946.193970 1828.894409,1949.083984 
	C1828.201416,1949.159668 1827.628784,1950.336670 1827.000000,1951.000000 
	C1259.631714,1951.000000 692.263489,1951.000000 124.778999,1950.660400 
	C120.405083,1949.529907 116.089745,1948.967285 111.899704,1947.908691 
	C93.081505,1943.154053 75.239632,1936.157715 59.329781,1924.744385 
	C44.927197,1914.412231 32.684155,1901.849609 23.175737,1887.038574 
	C12.879743,1871.000732 5.402508,1853.586792 2.890469,1834.393188 
	C2.820113,1833.855591 1.654757,1833.461182 1.000000,1833.000000 
M1075.500000,1269.000244 
	C1154.328613,1269.000244 1233.157471,1268.956543 1311.985718,1269.115601 
	C1316.406616,1269.124512 1318.732910,1267.770142 1320.955078,1264.027100 
	C1333.507812,1242.881226 1350.806641,1226.452881 1372.752441,1215.496460 
	C1413.106934,1195.349243 1454.105225,1194.904785 1494.181396,1215.587769 
	C1531.943604,1235.076416 1554.904541,1266.604858 1563.024414,1308.458374 
	C1564.685425,1317.019897 1564.885132,1325.864990 1565.788086,1334.874146 
	C1566.324463,1334.905273 1567.125122,1334.992188 1567.925659,1334.992188 
	C1601.425293,1334.996826 1634.925049,1334.972778 1668.424683,1335.000854 
	C1684.446289,1335.014282 1699.879639,1331.869751 1714.278198,1325.023926 
	C1759.214111,1303.658813 1782.695801,1267.511719 1782.779785,1218.105103 
	C1783.044312,1062.494751 1782.343140,906.882690 1781.987549,751.271301 
	C1781.946655,733.340027 1776.570679,716.783325 1767.411499,701.644836 
	C1744.079102,663.081421 1709.347168,644.062561 1664.513428,644.053650 
	C1215.684326,643.964722 766.855225,643.989136 318.026093,644.041687 
	C301.739685,644.043640 285.454285,644.728821 269.166656,644.981201 
	C251.698029,645.251831 235.579803,650.547668 220.910065,659.454590 
	C182.704376,682.651550 163.085526,716.868958 163.048065,761.680847 
	C162.921158,913.512634 162.984146,1065.344604 163.048492,1217.176514 
	C163.051498,1224.259399 162.955276,1231.499268 164.290710,1238.397827 
	C170.329407,1269.592041 185.681763,1295.092651 211.751358,1313.810425 
	C228.802444,1326.052979 248.001526,1333.237061 268.628784,1334.695557 
	C288.525604,1336.102417 308.599945,1335.006348 328.596252,1334.981201 
	C329.696014,1334.979858 330.795441,1334.717407 331.825531,1334.585327 
	C332.997345,1314.264038 336.304291,1294.741455 345.238312,1275.999756 
	C342.770355,1275.999756 340.969421,1275.999756 339.168518,1275.999756 
	C304.168854,1275.999756 269.169189,1276.000122 234.169510,1275.999512 
	C226.779846,1275.999390 225.000778,1274.250366 225.000763,1266.984009 
	C225.000351,1095.818970 225.000427,924.653870 225.000412,753.488831 
	C225.000412,751.388428 225.000412,749.288025 225.000412,746.935303 
	C221.383133,746.935303 218.436691,746.935303 214.815872,746.935303 
	C219.447128,737.670105 223.837982,728.885803 228.521225,719.516602 
	C233.220383,728.977356 237.584793,737.764160 242.259262,747.175171 
	C238.320816,747.175171 235.368088,747.175171 232.293427,747.175171 
	C232.293427,921.200195 232.293427,1094.926392 232.293427,1269.000244 
	C234.386597,1269.000244 236.189392,1269.000244 237.992188,1269.000244 
	C272.491852,1269.000244 306.992889,1268.848755 341.489868,1269.153564 
	C347.056610,1269.202637 349.793701,1267.288208 352.761230,1262.764038 
	C382.397705,1217.581421 424.786072,1196.700562 478.208618,1201.525391 
	C521.477539,1205.433228 554.727234,1227.726685 577.573486,1264.864380 
	C579.673767,1268.278564 581.863281,1269.067261 585.504578,1269.065552 
	C748.503052,1268.989990 911.501526,1269.000244 1075.500000,1269.000244 
M594.633179,1310.953369 
	C595.294312,1318.851929 595.955505,1326.750488 596.618408,1334.670410 
	C831.314880,1334.670410 1066.042114,1334.670410 1300.779663,1334.670410 
	C1302.046997,1314.369995 1305.227905,1294.820557 1314.172241,1276.210449 
	C1070.540771,1276.210449 827.482239,1276.210449 585.145264,1276.210449 
	C588.230530,1287.468994 591.332458,1298.788696 594.633179,1310.953369 
M1455.505371,1229.894775 
	C1441.678101,1226.969482 1427.691895,1226.894775 1413.934082,1229.449219 
	C1356.498413,1240.113647 1320.256836,1296.324219 1329.975464,1350.607422 
	C1339.219849,1402.242188 1388.055420,1443.302002 1444.103882,1436.732422 
	C1455.013306,1435.453613 1466.266968,1432.677979 1476.169312,1428.044189 
	C1511.206665,1411.648315 1532.254028,1384.419922 1537.135254,1345.314575 
	C1539.568726,1325.818848 1537.400879,1307.161865 1529.100586,1289.406860 
	C1514.414795,1257.992065 1489.992798,1238.307617 1455.505371,1229.894775 
M363.246918,1360.164062 
	C375.801544,1408.568115 427.076263,1445.880859 481.788879,1436.039795 
	C542.315857,1425.152832 580.175537,1368.297607 566.547852,1308.651123 
	C554.238953,1254.776367 503.282043,1219.107300 445.305359,1229.489624 
	C392.896118,1238.875000 360.982147,1282.660645 359.242706,1331.012817 
	C358.904816,1340.405640 361.712250,1349.911743 363.246918,1360.164062 
z"/>
<path fill="#000000" opacity="0.000000" stroke="none" 
	d="
M1.000000,1833.468628 
	C1.654757,1833.461182 2.820113,1833.855591 2.890469,1834.393188 
	C5.402508,1853.586792 12.879743,1871.000732 23.175737,1887.038574 
	C32.684155,1901.849609 44.927197,1914.412231 59.329781,1924.744385 
	C75.239632,1936.157715 93.081505,1943.154053 111.899704,1947.908691 
	C116.089745,1948.967285 120.405083,1949.529907 124.331367,1950.660400 
	C83.074539,1951.000000 42.149082,1951.000000 1.000000,1951.000000 
	C1.000000,1911.979370 1.000000,1872.958252 1.000000,1833.468628 
z"/>
<path fill="#000000" opacity="0.000000" stroke="none" 
	d="
M1827.468628,1951.000000 
	C1827.628784,1950.336670 1828.201416,1949.159668 1828.894409,1949.083984 
	C1855.337158,1946.193970 1878.760376,1935.765991 1899.112549,1919.134277 
	C1923.699219,1899.042236 1939.602295,1873.097290 1947.008423,1842.090576 
	C1947.709839,1839.154053 1948.561646,1836.253540 1949.671875,1833.668213 
	C1950.000000,1872.928833 1950.000000,1911.857544 1950.000000,1951.000000 
	C1909.312622,1951.000000 1868.625000,1951.000000 1827.468628,1951.000000 
z"/>
<path fill="#000000" opacity="0.000000" stroke="none" 
	d="
M117.531342,1.000001 
	C117.374527,1.663350 116.823158,2.811320 116.112846,2.919943 
	C91.336327,6.708868 69.519402,17.356943 50.561012,33.213734 
	C26.484554,53.351269 11.012958,79.190567 3.986725,109.927666 
	C3.314173,112.869827 2.428721,115.763321 1.321051,118.339706 
	C1.000000,79.073036 1.000000,40.146072 1.000000,1.000000 
	C39.687286,1.000000 78.374985,1.000000 117.531342,1.000001 
z"/>
<path fill="#000000" opacity="0.000000" stroke="none" 
	d="
M1950.000000,116.531342 
	C1949.336914,116.428078 1948.294556,115.977165 1948.067627,115.266083 
	C1944.584839,104.347710 1941.728882,93.198669 1937.684204,82.497505 
	C1931.725830,66.733810 1921.617676,53.315414 1909.816528,41.655910 
	C1891.613403,23.671438 1870.008545,10.970708 1844.818359,4.979572 
	C1840.625122,3.982271 1836.485352,2.760467 1832.660400,1.321199 
	C1871.926636,1.000000 1910.853271,1.000000 1950.000000,1.000000 
	C1950.000000,39.353947 1950.000000,77.708313 1950.000000,116.531342 
z"/>
<path fill="#FFFFFF" opacity="1.000000" stroke="none" 
	d="
M1075.000000,1269.000244 
	C911.501526,1269.000244 748.503052,1268.989990 585.504578,1269.065552 
	C581.863281,1269.067261 579.673767,1268.278564 577.573486,1264.864380 
	C554.727234,1227.726685 521.477539,1205.433228 478.208618,1201.525391 
	C424.786072,1196.700562 382.397705,1217.581421 352.761230,1262.764038 
	C349.793701,1267.288208 347.056610,1269.202637 341.489868,1269.153564 
	C306.992889,1268.848755 272.491852,1269.000244 237.992188,1269.000244 
	C236.189392,1269.000244 234.386597,1269.000244 232.293427,1269.000244 
	C232.293427,1094.926392 232.293427,921.200195 232.293427,747.175171 
	C235.368088,747.175171 238.320816,747.175171 242.259262,747.175171 
	C237.584793,737.764160 233.220383,728.977356 228.521225,719.516602 
	C223.837982,728.885803 219.447128,737.670105 214.815872,746.935303 
	C218.436691,746.935303 221.383133,746.935303 225.000412,746.935303 
	C225.000412,749.288025 225.000412,751.388428 225.000412,753.488831 
	C225.000427,924.653870 225.000351,1095.818970 225.000763,1266.984009 
	C225.000778,1274.250366 226.779846,1275.999390 234.169510,1275.999512 
	C269.169189,1276.000122 304.168854,1275.999756 339.168518,1275.999756 
	C340.969421,1275.999756 342.770355,1275.999756 345.238312,1275.999756 
	C336.304291,1294.741455 332.997345,1314.264038 331.825531,1334.585327 
	C330.795441,1334.717407 329.696014,1334.979858 328.596252,1334.981201 
	C308.599945,1335.006348 288.525604,1336.102417 268.628784,1334.695557 
	C248.001526,1333.237061 228.802444,1326.052979 211.751358,1313.810425 
	C185.681763,1295.092651 170.329407,1269.592041 164.290710,1238.397827 
	C162.955276,1231.499268 163.051498,1224.259399 163.048492,1217.176514 
	C162.984146,1065.344604 162.921158,913.512634 163.048065,761.680847 
	C163.085526,716.868958 182.704376,682.651550 220.910065,659.454590 
	C235.579803,650.547668 251.698029,645.251831 269.166656,644.981201 
	C285.454285,644.728821 301.739685,644.043640 318.026093,644.041687 
	C766.855225,643.989136 1215.684326,643.964722 1664.513428,644.053650 
	C1709.347168,644.062561 1744.079102,663.081421 1767.411499,701.644836 
	C1776.570679,716.783325 1781.946655,733.340027 1781.987549,751.271301 
	C1782.343140,906.882690 1783.044312,1062.494751 1782.779785,1218.105103 
	C1782.695801,1267.511719 1759.214111,1303.658813 1714.278198,1325.023926 
	C1699.879639,1331.869751 1684.446289,1335.014282 1668.424683,1335.000854 
	C1634.925049,1334.972778 1601.425293,1334.996826 1567.925659,1334.992188 
	C1567.125122,1334.992188 1566.324463,1334.905273 1565.788086,1334.874146 
	C1564.885132,1325.864990 1564.685425,1317.019897 1563.024414,1308.458374 
	C1554.904541,1266.604858 1531.943604,1235.076416 1494.181396,1215.587769 
	C1454.105225,1194.904785 1413.106934,1195.349243 1372.752441,1215.496460 
	C1350.806641,1226.452881 1333.507812,1242.881226 1320.955078,1264.027100 
	C1318.732910,1267.770142 1316.406616,1269.124512 1311.985718,1269.115601 
	C1233.157471,1268.956543 1154.328613,1269.000244 1075.000000,1269.000244 
M853.327820,950.848999 
	C876.251099,935.424194 899.165771,919.986450 922.123657,904.613464 
	C923.251892,903.857971 925.410950,902.865967 925.988037,903.336243 
	C932.269897,908.455322 939.247803,908.887024 946.616455,906.577393 
	C947.642090,908.388855 948.468933,909.823608 949.272278,911.271423 
	C971.321045,951.009460 993.369080,990.747864 1015.413879,1030.488159 
	C1044.725952,1083.329224 1074.057251,1136.159424 1103.253418,1189.064453 
	C1104.278076,1190.921021 1104.830688,1193.882080 1104.092773,1195.722900 
	C1100.746338,1204.070923 1101.664917,1211.693237 1107.382812,1217.476929 
	C1112.708618,1222.864014 1120.693970,1224.447998 1127.691895,1221.505493 
	C1135.062134,1218.406250 1138.987427,1211.588257 1138.981567,1202.623291 
	C1138.980469,1200.922119 1139.833740,1198.726196 1141.062378,1197.592407 
	C1160.987427,1179.202759 1181.044434,1160.956177 1201.056030,1142.660278 
	C1240.097412,1106.965942 1279.131592,1071.263794 1318.163452,1035.559082 
	C1347.867310,1008.387146 1377.558594,981.201416 1407.271606,954.039429 
	C1409.226074,952.252808 1411.318115,950.616821 1413.999634,948.361023 
	C1413.999634,951.431335 1413.999756,953.262390 1413.999756,955.093506 
	C1413.999756,1003.923279 1413.956543,1052.753052 1414.014404,1101.582764 
	C1414.055176,1136.007202 1438.885132,1160.949463 1473.217529,1160.981323 
	C1542.045776,1161.045166 1610.874146,1161.042358 1679.702393,1160.982666 
	C1714.085327,1160.952759 1738.968262,1136.062988 1738.982910,1101.662964 
	C1739.029785,992.170959 1739.033813,882.679016 1738.980347,773.187012 
	C1738.963745,739.067749 1714.069092,714.064209 1680.052368,714.024109 
	C1611.057495,713.942871 1542.062500,713.970520 1473.067627,714.063477 
	C1468.276245,714.069885 1463.366821,714.475220 1458.715088,715.562256 
	C1431.821289,721.846924 1414.077759,744.465271 1414.026978,772.567261 
	C1413.932617,824.896606 1413.978760,877.226196 1414.051514,929.555664 
	C1414.055908,932.735657 1413.385742,935.016113 1410.844238,937.307434 
	C1392.065186,954.237671 1373.476196,971.378601 1354.823975,988.449463 
	C1321.199829,1019.223206 1287.579956,1050.001343 1253.946411,1080.764648 
	C1218.963257,1112.762207 1183.969604,1144.747925 1148.971191,1176.728882 
	C1143.744751,1181.504639 1138.467041,1186.224487 1133.213501,1190.969849 
	C1127.194336,1186.121338 1120.912598,1184.914795 1113.889526,1187.105469 
	C1112.958008,1185.532959 1112.084229,1184.138306 1111.287109,1182.701172 
	C1059.689819,1089.682007 1008.105530,996.655579 956.472351,903.656250 
	C955.034668,901.066711 954.402222,898.970886 955.678406,895.872070 
	C958.651794,888.651917 956.566040,880.883667 950.840393,875.855164 
	C945.054932,870.774109 938.430420,869.661316 931.294922,872.530457 
	C924.390137,875.306763 919.837219,882.161682 920.140015,889.900635 
	C920.263245,893.050659 919.147156,894.618164 916.681274,896.253662 
	C895.595947,910.238831 874.586548,924.338745 853.580017,938.442444 
	C807.713013,969.237305 761.856262,1000.047363 716.016235,1030.882324 
	C713.585693,1032.517212 711.748474,1033.185181 708.506226,1031.742310 
	C704.634705,1030.019287 699.920593,1029.543457 695.610840,1029.689575 
	C692.955933,1029.779541 691.386414,1029.565308 689.712646,1027.506592 
	C655.556519,985.492737 621.360107,943.511719 587.092468,901.588928 
	C585.196228,899.269226 584.915466,897.288025 585.531982,894.364624 
	C587.091980,886.968079 584.365601,880.812317 578.269165,876.506470 
	C572.026733,872.097351 565.187622,871.695862 558.467041,875.431885 
	C551.931641,879.065125 547.942627,884.971985 549.353333,892.307007 
	C550.465942,898.092468 548.518250,901.370422 545.031860,905.351074 
	C526.958557,925.986877 509.185120,946.885254 491.308990,967.693726 
	C475.599304,985.980286 459.909210,1004.283752 444.178497,1022.552307 
	C430.943481,1037.922485 417.639893,1053.233398 404.407898,1068.606201 
	C391.175934,1083.979004 378.010651,1099.409302 364.787689,1114.789795 
	C351.456146,1130.296509 338.085236,1145.769287 324.739532,1161.263916 
	C311.957703,1176.103760 299.186249,1190.952515 286.235077,1206.000854 
	C288.825562,1208.215332 291.169586,1210.219116 293.821045,1212.485840 
	C381.749939,1110.340210 469.581787,1008.307434 557.536316,906.132080 
	C564.532166,910.221558 571.239563,909.498108 577.729187,906.250549 
	C578.335510,906.823242 578.735657,907.125122 579.043213,907.502441 
	C613.363831,949.596497 647.651733,991.717285 682.058777,1033.740601 
	C684.030212,1036.148315 683.726257,1037.785889 682.593018,1040.335449 
	C679.360596,1047.608276 681.196899,1055.610352 686.880127,1060.945068 
	C692.439270,1066.163208 700.383728,1067.427124 707.300354,1064.193726 
	C714.302185,1060.920532 718.732849,1053.775391 717.761963,1045.955811 
	C717.326477,1042.448120 718.698853,1040.990845 721.231018,1039.296509 
	C765.074768,1009.959473 808.868774,980.548096 853.327820,950.848999 
z"/>
<path fill="#FFFFFF" opacity="1.000000" stroke="none" 
	d="
M594.533813,1310.530762 
	C591.332458,1298.788696 588.230530,1287.468994 585.145264,1276.210449 
	C827.482239,1276.210449 1070.540771,1276.210449 1314.172241,1276.210449 
	C1305.227905,1294.820557 1302.046997,1314.369995 1300.779663,1334.670410 
	C1066.042114,1334.670410 831.314880,1334.670410 596.618408,1334.670410 
	C595.955505,1326.750488 595.294312,1318.851929 594.533813,1310.530762 
z"/>
<path fill="#FFFFFF" opacity="1.000000" stroke="none" 
	d="
M1455.920654,1229.969849 
	C1489.992798,1238.307617 1514.414795,1257.992065 1529.100586,1289.406860 
	C1537.400879,1307.161865 1539.568726,1325.818848 1537.135254,1345.314575 
	C1532.254028,1384.419922 1511.206665,1411.648315 1476.169312,1428.044189 
	C1466.266968,1432.677979 1455.013306,1435.453613 1444.103882,1436.732422 
	C1388.055420,1443.302002 1339.219849,1402.242188 1329.975464,1350.607422 
	C1320.256836,1296.324219 1356.498413,1240.113647 1413.934082,1229.449219 
	C1427.691895,1226.894775 1441.678101,1226.969482 1455.920654,1229.969849 
z"/>
<path fill="#FFFFFF" opacity="1.000000" stroke="none" 
	d="
M363.157898,1359.764893 
	C361.712250,1349.911743 358.904816,1340.405640 359.242706,1331.012817 
	C360.982147,1282.660645 392.896118,1238.875000 445.305359,1229.489624 
	C503.282043,1219.107300 554.238953,1254.776367 566.547852,1308.651123 
	C580.175537,1368.297607 542.315857,1425.152832 481.788879,1436.039795 
	C427.076263,1445.880859 375.801544,1408.568115 363.157898,1359.764893 
z"/>
<path fill="#ff9100" opacity="1.000000" stroke="none" 
	d="
M853.000732,951.001038 
	C808.868774,980.548096 765.074768,1009.959473 721.231018,1039.296509 
	C718.698853,1040.990845 717.326477,1042.448120 717.761963,1045.955811 
	C718.732849,1053.775391 714.302185,1060.920532 707.300354,1064.193726 
	C700.383728,1067.427124 692.439270,1066.163208 686.880127,1060.945068 
	C681.196899,1055.610352 679.360596,1047.608276 682.593018,1040.335449 
	C683.726257,1037.785889 684.030212,1036.148315 682.058777,1033.740601 
	C647.651733,991.717285 613.363831,949.596497 579.043213,907.502441 
	C578.735657,907.125122 578.335510,906.823242 577.729187,906.250549 
	C571.239563,909.498108 564.532166,910.221558 557.536316,906.132080 
	C469.581787,1008.307434 381.749939,1110.340210 293.821045,1212.485840 
	C291.169586,1210.219116 288.825562,1208.215332 286.235077,1206.000854 
	C299.186249,1190.952515 311.957703,1176.103760 324.739532,1161.263916 
	C338.085236,1145.769287 351.456146,1130.296509 364.787689,1114.789795 
	C378.010651,1099.409302 391.175934,1083.979004 404.407898,1068.606201 
	C417.639893,1053.233398 430.943481,1037.922485 444.178497,1022.552307 
	C459.909210,1004.283752 475.599304,985.980286 491.308990,967.693726 
	C509.185120,946.885254 526.958557,925.986877 545.031860,905.351074 
	C548.518250,901.370422 550.465942,898.092468 549.353333,892.307007 
	C547.942627,884.971985 551.931641,879.065125 558.467041,875.431885 
	C565.187622,871.695862 572.026733,872.097351 578.269165,876.506470 
	C584.365601,880.812317 587.091980,886.968079 585.531982,894.364624 
	C584.915466,897.288025 585.196228,899.269226 587.092468,901.588928 
	C621.360107,943.511719 655.556519,985.492737 689.712646,1027.506592 
	C691.386414,1029.565308 692.955933,1029.779541 695.610840,1029.689575 
	C699.920593,1029.543457 704.634705,1030.019287 708.506226,1031.742310 
	C711.748474,1033.185181 713.585693,1032.517212 716.016235,1030.882324 
	C761.856262,1000.047363 807.713013,969.237305 853.580017,938.442444 
	C874.586548,924.338745 895.595947,910.238831 916.681274,896.253662 
	C919.147156,894.618164 920.263245,893.050659 920.140015,889.900635 
	C919.837219,882.161682 924.390137,875.306763 931.294922,872.530457 
	C938.430420,869.661316 945.054932,870.774109 950.840393,875.855164 
	C956.566040,880.883667 958.651794,888.651917 955.678406,895.872070 
	C954.402222,898.970886 955.034668,901.066711 956.472351,903.656250 
	C1008.105530,996.655579 1059.689819,1089.682007 1111.287109,1182.701172 
	C1112.084229,1184.138306 1112.958008,1185.532959 1113.889526,1187.105469 
	C1120.912598,1184.914795 1127.194336,1186.121338 1133.213501,1190.969849 
	C1138.467041,1186.224487 1143.744751,1181.504639 1148.971191,1176.728882 
	C1183.969604,1144.747925 1218.963257,1112.762207 1253.946411,1080.764648 
	C1287.579956,1050.001343 1321.199829,1019.223206 1354.823975,988.449463 
	C1373.476196,971.378601 1392.065186,954.237671 1410.844238,937.307434 
	C1413.385742,935.016113 1414.055908,932.735657 1414.051514,929.555664 
	C1413.978760,877.226196 1413.932617,824.896606 1414.026978,772.567261 
	C1414.077759,744.465271 1431.821289,721.846924 1458.715088,715.562256 
	C1463.366821,714.475220 1468.276245,714.069885 1473.067627,714.063477 
	C1542.062500,713.970520 1611.057495,713.942871 1680.052368,714.024109 
	C1714.069092,714.064209 1738.963745,739.067749 1738.980347,773.187012 
	C1739.033813,882.679016 1739.029785,992.170959 1738.982910,1101.662964 
	C1738.968262,1136.062988 1714.085327,1160.952759 1679.702393,1160.982666 
	C1610.874146,1161.042358 1542.045776,1161.045166 1473.217529,1160.981323 
	C1438.885132,1160.949463 1414.055176,1136.007202 1414.014404,1101.582764 
	C1413.956543,1052.753052 1413.999756,1003.923279 1413.999756,955.093506 
	C1413.999756,953.262390 1413.999634,951.431335 1413.999634,948.361023 
	C1411.318115,950.616821 1409.226074,952.252808 1407.271606,954.039429 
	C1377.558594,981.201416 1347.867310,1008.387146 1318.163452,1035.559082 
	C1279.131592,1071.263794 1240.097412,1106.965942 1201.056030,1142.660278 
	C1181.044434,1160.956177 1160.987427,1179.202759 1141.062378,1197.592407 
	C1139.833740,1198.726196 1138.980469,1200.922119 1138.981567,1202.623291 
	C1138.987427,1211.588257 1135.062134,1218.406250 1127.691895,1221.505493 
	C1120.693970,1224.447998 1112.708618,1222.864014 1107.382812,1217.476929 
	C1101.664917,1211.693237 1100.746338,1204.070923 1104.092773,1195.722900 
	C1104.830688,1193.882080 1104.278076,1190.921021 1103.253418,1189.064453 
	C1074.057251,1136.159424 1044.725952,1083.329224 1015.413879,1030.488159 
	C993.369080,990.747864 971.321045,951.009460 949.272278,911.271423 
	C948.468933,909.823608 947.642090,908.388855 946.616455,906.577393 
	C939.247803,908.887024 932.269897,908.455322 925.988037,903.336243 
	C925.410950,902.865967 923.251892,903.857971 922.123657,904.613464 
	C899.165771,919.986450 876.251099,935.424194 853.000732,951.001038 
z"/>
</svg>